<svg width="40" height="40" viewBox="0 0 40 40" fill="none" xmlns="http://www.w3.org/2000/svg">
<path d="M20 36.6673C29.2048 36.6673 36.6667 29.2054 36.6667 20.0007C36.6667 10.7959 29.2048 3.33398 20 3.33398C10.7953 3.33398 3.33337 10.7959 3.33337 20.0007C3.33337 29.2054 10.7953 36.6673 20 36.6673Z" fill="white"/>
<path fill-rule="evenodd" clip-rule="evenodd" d="M15.6455 11.9033C15.6455 12.9408 14.8555 13.7805 13.6201 13.7805C12.4328 13.7805 11.6427 12.9408 11.6672 11.9033C11.6427 10.8153 12.4327 10 13.6438 10C14.8555 10 15.6218 10.8153 15.6455 11.9033ZM11.7665 27.3492V15.2635H15.5225V27.3484L11.7665 27.3492Z" fill="black"/>
<path fill-rule="evenodd" clip-rule="evenodd" d="M18.5327 19.1207C18.5327 17.6133 18.483 16.3281 18.4333 15.2654H21.6959L21.8693 16.9211H21.9434C22.4378 16.1547 23.6732 14.9941 25.675 14.9941C28.1459 14.9941 29.9995 16.6254 29.9995 20.1827V27.3511H26.2434V20.6534C26.2434 19.0956 25.7003 18.0335 24.341 18.0335C23.3027 18.0335 22.6853 18.7501 22.4385 19.4416C22.3392 19.6892 22.2903 20.0346 22.2903 20.3814V27.3511H18.5342V19.1207H18.5327Z" fill="black"/>
</svg>
