<svg width="36" height="35" viewBox="0 0 36 35" fill="none" xmlns="http://www.w3.org/2000/svg">
<path d="M17.7947 32.5944C26.1951 32.5944 33.005 25.7845 33.005 17.3841C33.005 8.9837 26.1951 2.17383 17.7947 2.17383C9.39434 2.17383 2.58447 8.9837 2.58447 17.3841C2.58447 25.7845 9.39434 32.5944 17.7947 32.5944Z" stroke="white" stroke-width="2.76682" stroke-miterlimit="10"/>
<path d="M12.1733 3.24414C14.8523 6.26625 17.1308 9.62078 18.9528 13.225C19.8159 14.8978 20.5801 16.6197 21.2416 18.382C22.8088 22.4792 23.8552 26.7571 24.356 31.1152" stroke="white" stroke-width="2.76682" stroke-miterlimit="10"/>
<path d="M28.9053 6.98242C26.1011 9.78717 22.699 11.9215 18.9535 13.2259C13.7646 15.2373 8.21729 16.1593 2.65674 15.9348" stroke="white" stroke-width="2.76682" stroke-miterlimit="10"/>
<path d="M32.8889 19.1349C29.1448 17.9443 25.1667 17.6857 21.3001 18.3817C18.3835 18.9342 15.6389 20.1683 13.2901 21.9834C10.9413 23.7985 9.05488 26.1431 7.78467 28.826" stroke="white" stroke-width="2.76682" stroke-miterlimit="10"/>
</svg>
