<svg width="35" height="35" viewBox="0 0 35 35" fill="none" xmlns="http://www.w3.org/2000/svg">
<path d="M4.3457 15.9345C4.3457 10.4715 4.3457 7.73998 6.04284 6.04284C7.73998 4.3457 10.4715 4.3457 15.9345 4.3457H18.8317C24.2946 4.3457 27.0262 4.3457 28.7233 6.04284C30.4205 7.73998 30.4205 10.4715 30.4205 15.9345V18.8317C30.4205 24.2946 30.4205 27.0262 28.7233 28.7233C27.0262 30.4205 24.2946 30.4205 18.8317 30.4205H15.9345C10.4715 30.4205 7.73998 30.4205 6.04284 28.7233C4.3457 27.0262 4.3457 24.2946 4.3457 18.8317V15.9345Z" stroke="white" stroke-width="2.8972"/>
<path d="M23.9019 13.0372C25.102 13.0372 26.0748 12.0644 26.0748 10.8643C26.0748 9.66424 25.102 8.69141 23.9019 8.69141C22.7018 8.69141 21.729 9.66424 21.729 10.8643C21.729 12.0644 22.7018 13.0372 23.9019 13.0372Z" fill="white"/>
<path d="M17.3834 21.7287C19.7835 21.7287 21.7292 19.783 21.7292 17.3829C21.7292 14.9828 19.7835 13.0371 17.3834 13.0371C14.9833 13.0371 13.0376 14.9828 13.0376 17.3829C13.0376 19.783 14.9833 21.7287 17.3834 21.7287Z" stroke="white" stroke-width="2.8972"/>
</svg>
